# xmcd CD database file
#
# Track frame offsets:
#	150
#	18514
#	33374
#	55946
#
# Disc length: 987 seconds
#
# Revision: 6
# Processed by: cddbd v1.5.2PL0 Copyright (c) Steve Scherf et al.
# Submitted via: CDex 1.70beta2
#
DISCID=2a03d904
DTITLE=藍井エイル - IGNITE （アニメ「ソードアート・オンラインII」第1期ＯＰテーマ）
DYEAR=2014
DGENRE=Anime
TTITLE0=IGNITE （アニメ「ソードアート・オンラインII」第1期ＯＰテーマ）
TTITLE1=Brainwash
TTITLE2=泡沫
TTITLE3=IGNITE （Instrumental）
EXTD=YEAR: 2014
EXTT0=
EXTT1=
EXTT2=
EXTT3=
PLAYORDER=
